# xmcd
#
# Track frame offsets:
#	150
#	18607
#	31635
#	43797
#	59890
#	72385
#	88950
#	104295
#	118372
#	134237
#
# Disc length: 1996 seconds
#
# Revision: 8
# Processed by: cddbd v1.5.2PL0 Copyright (c) Steve Scherf et al.
# Submitted via: audiograbber 1.83.01
#
DISCID=9e07ca0a
DTITLE=Reba McEntire - Reba McEntire's Greatest Hits
DYEAR=1987
DGENRE=Country
TTITLE0=Just A Little Love
TTITLE1=He Broke Your Memory Last Night
TTITLE2=How Blue
TTITLE3=Somebody Should Leave
TTITLE4=Have I Got A Deal For You
TTITLE5=Only In My Mind
TTITLE6=Whoever's In New England
TTITLE7=Little Rock
TTITLE8=What Am I Gonna Do About You
TTITLE9=One Promise Too Late
EXTD=MCA - 1987
EXTT0=
EXTT1=
EXTT2=
EXTT3=
EXTT4=
EXTT5=
EXTT6=
EXTT7=
EXTT8=
EXTT9=
PLAYORDER=
